G04 #@! TF.FileFunction,Legend,Bot*
%FSLAX46Y46*%
G04 Gerber Fmt 4.6, Leading zero omitted, Abs format (unit mm)*
G04 Created by KiCad (PCBNEW (2016-03-06 BZR 6610)-product) date 2016 April 20, Wednesday 18:42:29*
%MOMM*%
G01*
G04 APERTURE LIST*
%ADD10C,0.100000*%
%ADD11C,0.150000*%
%ADD12C,0.200000*%
G04 APERTURE END LIST*
D10*
D11*
X153720715Y-105060905D02*
X153720715Y-104260905D01*
X153454048Y-104832333D01*
X153187381Y-104260905D01*
X153187381Y-105060905D01*
X152654048Y-104260905D02*
X152501667Y-104260905D01*
X152425476Y-104299000D01*
X152349286Y-104375190D01*
X152311191Y-104527571D01*
X152311191Y-104794238D01*
X152349286Y-104946619D01*
X152425476Y-105022810D01*
X152501667Y-105060905D01*
X152654048Y-105060905D01*
X152730238Y-105022810D01*
X152806429Y-104946619D01*
X152844524Y-104794238D01*
X152844524Y-104527571D01*
X152806429Y-104375190D01*
X152730238Y-104299000D01*
X152654048Y-104260905D01*
X151968334Y-105060905D02*
X151968334Y-104260905D01*
X151777858Y-104260905D01*
X151663572Y-104299000D01*
X151587381Y-104375190D01*
X151549286Y-104451381D01*
X151511191Y-104603762D01*
X151511191Y-104718048D01*
X151549286Y-104870429D01*
X151587381Y-104946619D01*
X151663572Y-105022810D01*
X151777858Y-105060905D01*
X151968334Y-105060905D01*
X151168334Y-104641857D02*
X150901667Y-104641857D01*
X150787381Y-105060905D02*
X151168334Y-105060905D01*
X151168334Y-104260905D01*
X150787381Y-104260905D01*
D12*
X143000000Y-105461000D02*
X157000000Y-105461000D01*
D11*
X148418762Y-105060905D02*
X148418762Y-104260905D01*
X148228286Y-104260905D01*
X148114000Y-104299000D01*
X148037809Y-104375190D01*
X147999714Y-104451381D01*
X147961619Y-104603762D01*
X147961619Y-104718048D01*
X147999714Y-104870429D01*
X148037809Y-104946619D01*
X148114000Y-105022810D01*
X148228286Y-105060905D01*
X148418762Y-105060905D01*
X147618762Y-104756143D02*
X147009238Y-104756143D01*
X147314000Y-105060905D02*
X147314000Y-104451381D01*
X145497762Y-105060905D02*
X145497762Y-104260905D01*
X145307286Y-104260905D01*
X145193000Y-104299000D01*
X145116809Y-104375190D01*
X145078714Y-104451381D01*
X145040619Y-104603762D01*
X145040619Y-104718048D01*
X145078714Y-104870429D01*
X145116809Y-104946619D01*
X145193000Y-105022810D01*
X145307286Y-105060905D01*
X145497762Y-105060905D01*
X144697762Y-104756143D02*
X144088238Y-104756143D01*
X148418762Y-106711905D02*
X148418762Y-105911905D01*
X148228286Y-105911905D01*
X148114000Y-105950000D01*
X148037809Y-106026190D01*
X147999714Y-106102381D01*
X147961619Y-106254762D01*
X147961619Y-106369048D01*
X147999714Y-106521429D01*
X148037809Y-106597619D01*
X148114000Y-106673810D01*
X148228286Y-106711905D01*
X148418762Y-106711905D01*
X147618762Y-106407143D02*
X147009238Y-106407143D01*
D12*
X134657143Y-94857143D02*
X134600000Y-94800000D01*
X134485714Y-94742857D01*
X134200000Y-94742857D01*
X134085714Y-94800000D01*
X134028571Y-94857143D01*
X133971428Y-94971429D01*
X133971428Y-95085714D01*
X134028571Y-95257143D01*
X134714285Y-95942857D01*
X133971428Y-95942857D01*
X133457143Y-95828571D02*
X133400000Y-95885714D01*
X133457143Y-95942857D01*
X133514286Y-95885714D01*
X133457143Y-95828571D01*
X133457143Y-95942857D01*
X132657142Y-94742857D02*
X132542857Y-94742857D01*
X132428571Y-94800000D01*
X132371428Y-94857143D01*
X132314285Y-94971429D01*
X132257142Y-95200000D01*
X132257142Y-95485714D01*
X132314285Y-95714286D01*
X132371428Y-95828571D01*
X132428571Y-95885714D01*
X132542857Y-95942857D01*
X132657142Y-95942857D01*
X132771428Y-95885714D01*
X132828571Y-95828571D01*
X132885714Y-95714286D01*
X132942857Y-95485714D01*
X132942857Y-95200000D01*
X132885714Y-94971429D01*
X132828571Y-94857143D01*
X132771428Y-94800000D01*
X132657142Y-94742857D01*
X131914285Y-94742857D02*
X131514285Y-95942857D01*
X131114285Y-94742857D01*
X134657143Y-97157143D02*
X134600000Y-97100000D01*
X134485714Y-97042857D01*
X134200000Y-97042857D01*
X134085714Y-97100000D01*
X134028571Y-97157143D01*
X133971428Y-97271429D01*
X133971428Y-97385714D01*
X134028571Y-97557143D01*
X134714285Y-98242857D01*
X133971428Y-98242857D01*
X133457143Y-98128571D02*
X133400000Y-98185714D01*
X133457143Y-98242857D01*
X133514286Y-98185714D01*
X133457143Y-98128571D01*
X133457143Y-98242857D01*
X132714285Y-97557143D02*
X132828571Y-97500000D01*
X132885714Y-97442857D01*
X132942857Y-97328571D01*
X132942857Y-97271429D01*
X132885714Y-97157143D01*
X132828571Y-97100000D01*
X132714285Y-97042857D01*
X132485714Y-97042857D01*
X132371428Y-97100000D01*
X132314285Y-97157143D01*
X132257142Y-97271429D01*
X132257142Y-97328571D01*
X132314285Y-97442857D01*
X132371428Y-97500000D01*
X132485714Y-97557143D01*
X132714285Y-97557143D01*
X132828571Y-97614286D01*
X132885714Y-97671429D01*
X132942857Y-97785714D01*
X132942857Y-98014286D01*
X132885714Y-98128571D01*
X132828571Y-98185714D01*
X132714285Y-98242857D01*
X132485714Y-98242857D01*
X132371428Y-98185714D01*
X132314285Y-98128571D01*
X132257142Y-98014286D01*
X132257142Y-97785714D01*
X132314285Y-97671429D01*
X132371428Y-97614286D01*
X132485714Y-97557143D01*
X131914285Y-97042857D02*
X131514285Y-98242857D01*
X131114285Y-97042857D01*
X134142856Y-99342857D02*
X133742856Y-100542857D01*
X133342856Y-99342857D01*
X133000000Y-100200000D02*
X132428571Y-100200000D01*
X133114285Y-100542857D02*
X132714285Y-99342857D01*
X132314285Y-100542857D01*
X131228571Y-100542857D02*
X131628571Y-99971429D01*
X131914286Y-100542857D02*
X131914286Y-99342857D01*
X131457143Y-99342857D01*
X131342857Y-99400000D01*
X131285714Y-99457143D01*
X131228571Y-99571429D01*
X131228571Y-99742857D01*
X131285714Y-99857143D01*
X131342857Y-99914286D01*
X131457143Y-99971429D01*
X131914286Y-99971429D01*
X133400000Y-102842857D02*
X133400000Y-101642857D01*
X133114285Y-101642857D01*
X132942857Y-101700000D01*
X132828571Y-101814286D01*
X132771428Y-101928571D01*
X132714285Y-102157143D01*
X132714285Y-102328571D01*
X132771428Y-102557143D01*
X132828571Y-102671429D01*
X132942857Y-102785714D01*
X133114285Y-102842857D01*
X133400000Y-102842857D01*
X132200000Y-102385714D02*
X131285714Y-102385714D01*
X135285714Y-103942857D02*
X135057143Y-103942857D01*
X134942857Y-104000000D01*
X134828571Y-104114286D01*
X134771429Y-104342857D01*
X134771429Y-104742857D01*
X134828571Y-104971429D01*
X134942857Y-105085714D01*
X135057143Y-105142857D01*
X135285714Y-105142857D01*
X135400000Y-105085714D01*
X135514286Y-104971429D01*
X135571429Y-104742857D01*
X135571429Y-104342857D01*
X135514286Y-104114286D01*
X135400000Y-104000000D01*
X135285714Y-103942857D01*
X134257143Y-105142857D02*
X134257143Y-103942857D01*
X133800000Y-103942857D01*
X133685714Y-104000000D01*
X133628571Y-104057143D01*
X133571428Y-104171429D01*
X133571428Y-104342857D01*
X133628571Y-104457143D01*
X133685714Y-104514286D01*
X133800000Y-104571429D01*
X134257143Y-104571429D01*
X133057143Y-104514286D02*
X132657143Y-104514286D01*
X132485714Y-105142857D02*
X133057143Y-105142857D01*
X133057143Y-103942857D01*
X132485714Y-103942857D01*
X131971429Y-105142857D02*
X131971429Y-103942857D01*
X131285714Y-105142857D01*
X131285714Y-103942857D01*
X134605000Y-110500000D02*
X134605000Y-111500000D01*
X136119285Y-108342857D02*
X135719285Y-109542857D01*
X135319285Y-108342857D01*
X134976429Y-109200000D02*
X134405000Y-109200000D01*
X135090714Y-109542857D02*
X134690714Y-108342857D01*
X134290714Y-109542857D01*
X133205000Y-109542857D02*
X133605000Y-108971429D01*
X133890715Y-109542857D02*
X133890715Y-108342857D01*
X133433572Y-108342857D01*
X133319286Y-108400000D01*
X133262143Y-108457143D01*
X133205000Y-108571429D01*
X133205000Y-108742857D01*
X133262143Y-108857143D01*
X133319286Y-108914286D01*
X133433572Y-108971429D01*
X133890715Y-108971429D01*
X165395000Y-111500000D02*
X165395000Y-110500000D01*
X166909285Y-108342857D02*
X166509285Y-109542857D01*
X166109285Y-108342857D01*
X165766429Y-109200000D02*
X165195000Y-109200000D01*
X165880714Y-109542857D02*
X165480714Y-108342857D01*
X165080714Y-109542857D01*
X163995000Y-109542857D02*
X164395000Y-108971429D01*
X164680715Y-109542857D02*
X164680715Y-108342857D01*
X164223572Y-108342857D01*
X164109286Y-108400000D01*
X164052143Y-108457143D01*
X163995000Y-108571429D01*
X163995000Y-108742857D01*
X164052143Y-108857143D01*
X164109286Y-108914286D01*
X164223572Y-108971429D01*
X164680715Y-108971429D01*
X168771429Y-94857143D02*
X168714286Y-94800000D01*
X168600000Y-94742857D01*
X168314286Y-94742857D01*
X168200000Y-94800000D01*
X168142857Y-94857143D01*
X168085714Y-94971429D01*
X168085714Y-95085714D01*
X168142857Y-95257143D01*
X168828571Y-95942857D01*
X168085714Y-95942857D01*
X167571429Y-95828571D02*
X167514286Y-95885714D01*
X167571429Y-95942857D01*
X167628572Y-95885714D01*
X167571429Y-95828571D01*
X167571429Y-95942857D01*
X166771428Y-94742857D02*
X166657143Y-94742857D01*
X166542857Y-94800000D01*
X166485714Y-94857143D01*
X166428571Y-94971429D01*
X166371428Y-95200000D01*
X166371428Y-95485714D01*
X166428571Y-95714286D01*
X166485714Y-95828571D01*
X166542857Y-95885714D01*
X166657143Y-95942857D01*
X166771428Y-95942857D01*
X166885714Y-95885714D01*
X166942857Y-95828571D01*
X167000000Y-95714286D01*
X167057143Y-95485714D01*
X167057143Y-95200000D01*
X167000000Y-94971429D01*
X166942857Y-94857143D01*
X166885714Y-94800000D01*
X166771428Y-94742857D01*
X166028571Y-94742857D02*
X165628571Y-95942857D01*
X165228571Y-94742857D01*
X168771429Y-97157143D02*
X168714286Y-97100000D01*
X168600000Y-97042857D01*
X168314286Y-97042857D01*
X168200000Y-97100000D01*
X168142857Y-97157143D01*
X168085714Y-97271429D01*
X168085714Y-97385714D01*
X168142857Y-97557143D01*
X168828571Y-98242857D01*
X168085714Y-98242857D01*
X167571429Y-98128571D02*
X167514286Y-98185714D01*
X167571429Y-98242857D01*
X167628572Y-98185714D01*
X167571429Y-98128571D01*
X167571429Y-98242857D01*
X166828571Y-97557143D02*
X166942857Y-97500000D01*
X167000000Y-97442857D01*
X167057143Y-97328571D01*
X167057143Y-97271429D01*
X167000000Y-97157143D01*
X166942857Y-97100000D01*
X166828571Y-97042857D01*
X166600000Y-97042857D01*
X166485714Y-97100000D01*
X166428571Y-97157143D01*
X166371428Y-97271429D01*
X166371428Y-97328571D01*
X166428571Y-97442857D01*
X166485714Y-97500000D01*
X166600000Y-97557143D01*
X166828571Y-97557143D01*
X166942857Y-97614286D01*
X167000000Y-97671429D01*
X167057143Y-97785714D01*
X167057143Y-98014286D01*
X167000000Y-98128571D01*
X166942857Y-98185714D01*
X166828571Y-98242857D01*
X166600000Y-98242857D01*
X166485714Y-98185714D01*
X166428571Y-98128571D01*
X166371428Y-98014286D01*
X166371428Y-97785714D01*
X166428571Y-97671429D01*
X166485714Y-97614286D01*
X166600000Y-97557143D01*
X166028571Y-97042857D02*
X165628571Y-98242857D01*
X165228571Y-97042857D01*
X168885714Y-99342857D02*
X168485714Y-100542857D01*
X168085714Y-99342857D01*
X167742858Y-100200000D02*
X167171429Y-100200000D01*
X167857143Y-100542857D02*
X167457143Y-99342857D01*
X167057143Y-100542857D01*
X165971429Y-100542857D02*
X166371429Y-99971429D01*
X166657144Y-100542857D02*
X166657144Y-99342857D01*
X166200001Y-99342857D01*
X166085715Y-99400000D01*
X166028572Y-99457143D01*
X165971429Y-99571429D01*
X165971429Y-99742857D01*
X166028572Y-99857143D01*
X166085715Y-99914286D01*
X166200001Y-99971429D01*
X166657144Y-99971429D01*
X168714286Y-102842857D02*
X168714286Y-101642857D01*
X168428571Y-101642857D01*
X168257143Y-101700000D01*
X168142857Y-101814286D01*
X168085714Y-101928571D01*
X168028571Y-102157143D01*
X168028571Y-102328571D01*
X168085714Y-102557143D01*
X168142857Y-102671429D01*
X168257143Y-102785714D01*
X168428571Y-102842857D01*
X168714286Y-102842857D01*
X167514286Y-102385714D02*
X166600000Y-102385714D01*
X168485714Y-103942857D02*
X168257143Y-103942857D01*
X168142857Y-104000000D01*
X168028571Y-104114286D01*
X167971429Y-104342857D01*
X167971429Y-104742857D01*
X168028571Y-104971429D01*
X168142857Y-105085714D01*
X168257143Y-105142857D01*
X168485714Y-105142857D01*
X168600000Y-105085714D01*
X168714286Y-104971429D01*
X168771429Y-104742857D01*
X168771429Y-104342857D01*
X168714286Y-104114286D01*
X168600000Y-104000000D01*
X168485714Y-103942857D01*
X167457143Y-105142857D02*
X167457143Y-103942857D01*
X167000000Y-103942857D01*
X166885714Y-104000000D01*
X166828571Y-104057143D01*
X166771428Y-104171429D01*
X166771428Y-104342857D01*
X166828571Y-104457143D01*
X166885714Y-104514286D01*
X167000000Y-104571429D01*
X167457143Y-104571429D01*
X166257143Y-104514286D02*
X165857143Y-104514286D01*
X165685714Y-105142857D02*
X166257143Y-105142857D01*
X166257143Y-103942857D01*
X165685714Y-103942857D01*
X165171429Y-105142857D02*
X165171429Y-103942857D01*
X164485714Y-105142857D01*
X164485714Y-103942857D01*
X171622143Y-93292857D02*
X171622143Y-92092857D01*
X171336428Y-92092857D01*
X171165000Y-92150000D01*
X171050714Y-92264286D01*
X170993571Y-92378571D01*
X170936428Y-92607143D01*
X170936428Y-92778571D01*
X170993571Y-93007143D01*
X171050714Y-93121429D01*
X171165000Y-93235714D01*
X171336428Y-93292857D01*
X171622143Y-93292857D01*
X170422143Y-92835714D02*
X169507857Y-92835714D01*
X169965000Y-93292857D02*
X169965000Y-92378571D01*
X130492143Y-93292857D02*
X130492143Y-92092857D01*
X130206428Y-92092857D01*
X130035000Y-92150000D01*
X129920714Y-92264286D01*
X129863571Y-92378571D01*
X129806428Y-92607143D01*
X129806428Y-92778571D01*
X129863571Y-93007143D01*
X129920714Y-93121429D01*
X130035000Y-93235714D01*
X130206428Y-93292857D01*
X130492143Y-93292857D01*
X129292143Y-92835714D02*
X128377857Y-92835714D01*
X160439285Y-95150000D02*
X160553571Y-95092857D01*
X160725000Y-95092857D01*
X160896428Y-95150000D01*
X161010714Y-95264286D01*
X161067857Y-95378571D01*
X161125000Y-95607143D01*
X161125000Y-95778571D01*
X161067857Y-96007143D01*
X161010714Y-96121429D01*
X160896428Y-96235714D01*
X160725000Y-96292857D01*
X160610714Y-96292857D01*
X160439285Y-96235714D01*
X160382142Y-96178571D01*
X160382142Y-95778571D01*
X160610714Y-95778571D01*
X159867857Y-96292857D02*
X159867857Y-95092857D01*
X159182142Y-96292857D01*
X159182142Y-95092857D01*
X158610714Y-96292857D02*
X158610714Y-95092857D01*
X158324999Y-95092857D01*
X158153571Y-95150000D01*
X158039285Y-95264286D01*
X157982142Y-95378571D01*
X157924999Y-95607143D01*
X157924999Y-95778571D01*
X157982142Y-96007143D01*
X158039285Y-96121429D01*
X158153571Y-96235714D01*
X158324999Y-96292857D01*
X158610714Y-96292857D01*
X154867143Y-98042857D02*
X154867143Y-96842857D01*
X154581428Y-96842857D01*
X154410000Y-96900000D01*
X154295714Y-97014286D01*
X154238571Y-97128571D01*
X154181428Y-97357143D01*
X154181428Y-97528571D01*
X154238571Y-97757143D01*
X154295714Y-97871429D01*
X154410000Y-97985714D01*
X154581428Y-98042857D01*
X154867143Y-98042857D01*
X153667143Y-97585714D02*
X152752857Y-97585714D01*
X153210000Y-98042857D02*
X153210000Y-97128571D01*
X147247143Y-98042857D02*
X147247143Y-96842857D01*
X146961428Y-96842857D01*
X146790000Y-96900000D01*
X146675714Y-97014286D01*
X146618571Y-97128571D01*
X146561428Y-97357143D01*
X146561428Y-97528571D01*
X146618571Y-97757143D01*
X146675714Y-97871429D01*
X146790000Y-97985714D01*
X146961428Y-98042857D01*
X147247143Y-98042857D01*
X146047143Y-97585714D02*
X145132857Y-97585714D01*
X140703571Y-95092857D02*
X141275000Y-95092857D01*
X141332143Y-95664286D01*
X141275000Y-95607143D01*
X141160714Y-95550000D01*
X140875000Y-95550000D01*
X140760714Y-95607143D01*
X140703571Y-95664286D01*
X140646428Y-95778571D01*
X140646428Y-96064286D01*
X140703571Y-96178571D01*
X140760714Y-96235714D01*
X140875000Y-96292857D01*
X141160714Y-96292857D01*
X141275000Y-96235714D01*
X141332143Y-96178571D01*
X140303571Y-95092857D02*
X139903571Y-96292857D01*
X139503571Y-95092857D01*
D11*
X149237857Y-107258095D02*
X149199762Y-107220000D01*
X149123571Y-107181905D01*
X148933095Y-107181905D01*
X148856905Y-107220000D01*
X148818809Y-107258095D01*
X148780714Y-107334286D01*
X148780714Y-107410476D01*
X148818809Y-107524762D01*
X149275952Y-107981905D01*
X148780714Y-107981905D01*
X148437857Y-107905714D02*
X148399762Y-107943810D01*
X148437857Y-107981905D01*
X148475952Y-107943810D01*
X148437857Y-107905714D01*
X148437857Y-107981905D01*
X147904524Y-107181905D02*
X147828333Y-107181905D01*
X147752143Y-107220000D01*
X147714048Y-107258095D01*
X147675952Y-107334286D01*
X147637857Y-107486667D01*
X147637857Y-107677143D01*
X147675952Y-107829524D01*
X147714048Y-107905714D01*
X147752143Y-107943810D01*
X147828333Y-107981905D01*
X147904524Y-107981905D01*
X147980714Y-107943810D01*
X148018810Y-107905714D01*
X148056905Y-107829524D01*
X148095000Y-107677143D01*
X148095000Y-107486667D01*
X148056905Y-107334286D01*
X148018810Y-107258095D01*
X147980714Y-107220000D01*
X147904524Y-107181905D01*
X147409286Y-107181905D02*
X147142619Y-107981905D01*
X146875952Y-107181905D01*
X149237857Y-109798095D02*
X149199762Y-109760000D01*
X149123571Y-109721905D01*
X148933095Y-109721905D01*
X148856905Y-109760000D01*
X148818809Y-109798095D01*
X148780714Y-109874286D01*
X148780714Y-109950476D01*
X148818809Y-110064762D01*
X149275952Y-110521905D01*
X148780714Y-110521905D01*
X148437857Y-110445714D02*
X148399762Y-110483810D01*
X148437857Y-110521905D01*
X148475952Y-110483810D01*
X148437857Y-110445714D01*
X148437857Y-110521905D01*
X147942619Y-110064762D02*
X148018810Y-110026667D01*
X148056905Y-109988571D01*
X148095000Y-109912381D01*
X148095000Y-109874286D01*
X148056905Y-109798095D01*
X148018810Y-109760000D01*
X147942619Y-109721905D01*
X147790238Y-109721905D01*
X147714048Y-109760000D01*
X147675952Y-109798095D01*
X147637857Y-109874286D01*
X147637857Y-109912381D01*
X147675952Y-109988571D01*
X147714048Y-110026667D01*
X147790238Y-110064762D01*
X147942619Y-110064762D01*
X148018810Y-110102857D01*
X148056905Y-110140952D01*
X148095000Y-110217143D01*
X148095000Y-110369524D01*
X148056905Y-110445714D01*
X148018810Y-110483810D01*
X147942619Y-110521905D01*
X147790238Y-110521905D01*
X147714048Y-110483810D01*
X147675952Y-110445714D01*
X147637857Y-110369524D01*
X147637857Y-110217143D01*
X147675952Y-110140952D01*
X147714048Y-110102857D01*
X147790238Y-110064762D01*
X147409286Y-109721905D02*
X147142619Y-110521905D01*
X146875952Y-109721905D01*
X149237857Y-108528095D02*
X149199762Y-108490000D01*
X149123571Y-108451905D01*
X148933095Y-108451905D01*
X148856905Y-108490000D01*
X148818809Y-108528095D01*
X148780714Y-108604286D01*
X148780714Y-108680476D01*
X148818809Y-108794762D01*
X149275952Y-109251905D01*
X148780714Y-109251905D01*
X148437857Y-109175714D02*
X148399762Y-109213810D01*
X148437857Y-109251905D01*
X148475952Y-109213810D01*
X148437857Y-109175714D01*
X148437857Y-109251905D01*
X147904524Y-108451905D02*
X147828333Y-108451905D01*
X147752143Y-108490000D01*
X147714048Y-108528095D01*
X147675952Y-108604286D01*
X147637857Y-108756667D01*
X147637857Y-108947143D01*
X147675952Y-109099524D01*
X147714048Y-109175714D01*
X147752143Y-109213810D01*
X147828333Y-109251905D01*
X147904524Y-109251905D01*
X147980714Y-109213810D01*
X148018810Y-109175714D01*
X148056905Y-109099524D01*
X148095000Y-108947143D01*
X148095000Y-108756667D01*
X148056905Y-108604286D01*
X148018810Y-108528095D01*
X147980714Y-108490000D01*
X147904524Y-108451905D01*
X147409286Y-108451905D02*
X147142619Y-109251905D01*
X146875952Y-108451905D01*
X145935857Y-109798095D02*
X145897762Y-109760000D01*
X145821571Y-109721905D01*
X145631095Y-109721905D01*
X145554905Y-109760000D01*
X145516809Y-109798095D01*
X145478714Y-109874286D01*
X145478714Y-109950476D01*
X145516809Y-110064762D01*
X145973952Y-110521905D01*
X145478714Y-110521905D01*
X145135857Y-110445714D02*
X145097762Y-110483810D01*
X145135857Y-110521905D01*
X145173952Y-110483810D01*
X145135857Y-110445714D01*
X145135857Y-110521905D01*
X144602524Y-109721905D02*
X144526333Y-109721905D01*
X144450143Y-109760000D01*
X144412048Y-109798095D01*
X144373952Y-109874286D01*
X144335857Y-110026667D01*
X144335857Y-110217143D01*
X144373952Y-110369524D01*
X144412048Y-110445714D01*
X144450143Y-110483810D01*
X144526333Y-110521905D01*
X144602524Y-110521905D01*
X144678714Y-110483810D01*
X144716810Y-110445714D01*
X144754905Y-110369524D01*
X144793000Y-110217143D01*
X144793000Y-110026667D01*
X144754905Y-109874286D01*
X144716810Y-109798095D01*
X144678714Y-109760000D01*
X144602524Y-109721905D01*
X144107286Y-109721905D02*
X143840619Y-110521905D01*
X143573952Y-109721905D01*
X145935857Y-108528095D02*
X145897762Y-108490000D01*
X145821571Y-108451905D01*
X145631095Y-108451905D01*
X145554905Y-108490000D01*
X145516809Y-108528095D01*
X145478714Y-108604286D01*
X145478714Y-108680476D01*
X145516809Y-108794762D01*
X145973952Y-109251905D01*
X145478714Y-109251905D01*
X145135857Y-109175714D02*
X145097762Y-109213810D01*
X145135857Y-109251905D01*
X145173952Y-109213810D01*
X145135857Y-109175714D01*
X145135857Y-109251905D01*
X144640619Y-108794762D02*
X144716810Y-108756667D01*
X144754905Y-108718571D01*
X144793000Y-108642381D01*
X144793000Y-108604286D01*
X144754905Y-108528095D01*
X144716810Y-108490000D01*
X144640619Y-108451905D01*
X144488238Y-108451905D01*
X144412048Y-108490000D01*
X144373952Y-108528095D01*
X144335857Y-108604286D01*
X144335857Y-108642381D01*
X144373952Y-108718571D01*
X144412048Y-108756667D01*
X144488238Y-108794762D01*
X144640619Y-108794762D01*
X144716810Y-108832857D01*
X144754905Y-108870952D01*
X144793000Y-108947143D01*
X144793000Y-109099524D01*
X144754905Y-109175714D01*
X144716810Y-109213810D01*
X144640619Y-109251905D01*
X144488238Y-109251905D01*
X144412048Y-109213810D01*
X144373952Y-109175714D01*
X144335857Y-109099524D01*
X144335857Y-108947143D01*
X144373952Y-108870952D01*
X144412048Y-108832857D01*
X144488238Y-108794762D01*
X144107286Y-108451905D02*
X143840619Y-109251905D01*
X143573952Y-108451905D01*
X145935857Y-107258095D02*
X145897762Y-107220000D01*
X145821571Y-107181905D01*
X145631095Y-107181905D01*
X145554905Y-107220000D01*
X145516809Y-107258095D01*
X145478714Y-107334286D01*
X145478714Y-107410476D01*
X145516809Y-107524762D01*
X145973952Y-107981905D01*
X145478714Y-107981905D01*
X145135857Y-107905714D02*
X145097762Y-107943810D01*
X145135857Y-107981905D01*
X145173952Y-107943810D01*
X145135857Y-107905714D01*
X145135857Y-107981905D01*
X144602524Y-107181905D02*
X144526333Y-107181905D01*
X144450143Y-107220000D01*
X144412048Y-107258095D01*
X144373952Y-107334286D01*
X144335857Y-107486667D01*
X144335857Y-107677143D01*
X144373952Y-107829524D01*
X144412048Y-107905714D01*
X144450143Y-107943810D01*
X144526333Y-107981905D01*
X144602524Y-107981905D01*
X144678714Y-107943810D01*
X144716810Y-107905714D01*
X144754905Y-107829524D01*
X144793000Y-107677143D01*
X144793000Y-107486667D01*
X144754905Y-107334286D01*
X144716810Y-107258095D01*
X144678714Y-107220000D01*
X144602524Y-107181905D01*
X144107286Y-107181905D02*
X143840619Y-107981905D01*
X143573952Y-107181905D01*
X157339762Y-110293333D02*
X156958810Y-110293333D01*
X157415953Y-110521905D02*
X157149286Y-109721905D01*
X156882619Y-110521905D01*
X156615953Y-110521905D02*
X156615953Y-109721905D01*
X156311191Y-109721905D01*
X156235000Y-109760000D01*
X156196905Y-109798095D01*
X156158810Y-109874286D01*
X156158810Y-109988571D01*
X156196905Y-110064762D01*
X156235000Y-110102857D01*
X156311191Y-110140952D01*
X156615953Y-110140952D01*
X155815953Y-110521905D02*
X155815953Y-109721905D01*
X155511191Y-109721905D01*
X155435000Y-109760000D01*
X155396905Y-109798095D01*
X155358810Y-109874286D01*
X155358810Y-109988571D01*
X155396905Y-110064762D01*
X155435000Y-110102857D01*
X155511191Y-110140952D01*
X155815953Y-110140952D01*
X154635000Y-110521905D02*
X155015953Y-110521905D01*
X155015953Y-109721905D01*
X154368334Y-110102857D02*
X154101667Y-110102857D01*
X153987381Y-110521905D02*
X154368334Y-110521905D01*
X154368334Y-109721905D01*
X153987381Y-109721905D01*
X153073095Y-109798095D02*
X153035000Y-109760000D01*
X152958809Y-109721905D01*
X152768333Y-109721905D01*
X152692143Y-109760000D01*
X152654047Y-109798095D01*
X152615952Y-109874286D01*
X152615952Y-109950476D01*
X152654047Y-110064762D01*
X153111190Y-110521905D01*
X152615952Y-110521905D01*
X152273095Y-110445714D02*
X152235000Y-110483810D01*
X152273095Y-110521905D01*
X152311190Y-110483810D01*
X152273095Y-110445714D01*
X152273095Y-110521905D01*
X151739762Y-109721905D02*
X151663571Y-109721905D01*
X151587381Y-109760000D01*
X151549286Y-109798095D01*
X151511190Y-109874286D01*
X151473095Y-110026667D01*
X151473095Y-110217143D01*
X151511190Y-110369524D01*
X151549286Y-110445714D01*
X151587381Y-110483810D01*
X151663571Y-110521905D01*
X151739762Y-110521905D01*
X151815952Y-110483810D01*
X151854048Y-110445714D01*
X151892143Y-110369524D01*
X151930238Y-110217143D01*
X151930238Y-110026667D01*
X151892143Y-109874286D01*
X151854048Y-109798095D01*
X151815952Y-109760000D01*
X151739762Y-109721905D01*
X151168333Y-110293333D02*
X150787381Y-110293333D01*
X151244524Y-110521905D02*
X150977857Y-109721905D01*
X150711190Y-110521905D01*
X145497762Y-106711905D02*
X145497762Y-105911905D01*
X145307286Y-105911905D01*
X145193000Y-105950000D01*
X145116809Y-106026190D01*
X145078714Y-106102381D01*
X145040619Y-106254762D01*
X145040619Y-106369048D01*
X145078714Y-106521429D01*
X145116809Y-106597619D01*
X145193000Y-106673810D01*
X145307286Y-106711905D01*
X145497762Y-106711905D01*
X144697762Y-106407143D02*
X144088238Y-106407143D01*
X144393000Y-106711905D02*
X144393000Y-106102381D01*
X156044524Y-106711905D02*
X156044524Y-105911905D01*
X155854048Y-105911905D01*
X155739762Y-105950000D01*
X155663571Y-106026190D01*
X155625476Y-106102381D01*
X155587381Y-106254762D01*
X155587381Y-106369048D01*
X155625476Y-106521429D01*
X155663571Y-106597619D01*
X155739762Y-106673810D01*
X155854048Y-106711905D01*
X156044524Y-106711905D01*
X154787381Y-106635714D02*
X154825476Y-106673810D01*
X154939762Y-106711905D01*
X155015952Y-106711905D01*
X155130238Y-106673810D01*
X155206429Y-106597619D01*
X155244524Y-106521429D01*
X155282619Y-106369048D01*
X155282619Y-106254762D01*
X155244524Y-106102381D01*
X155206429Y-106026190D01*
X155130238Y-105950000D01*
X155015952Y-105911905D01*
X154939762Y-105911905D01*
X154825476Y-105950000D01*
X154787381Y-105988095D01*
X154444524Y-106711905D02*
X154444524Y-105911905D01*
X154139762Y-105911905D01*
X154063571Y-105950000D01*
X154025476Y-105988095D01*
X153987381Y-106064286D01*
X153987381Y-106178571D01*
X154025476Y-106254762D01*
X154063571Y-106292857D01*
X154139762Y-106330952D01*
X154444524Y-106330952D01*
X152615952Y-106711905D02*
X153073095Y-106711905D01*
X152844524Y-106711905D02*
X152844524Y-105911905D01*
X152920714Y-106026190D01*
X152996905Y-106102381D01*
X153073095Y-106140476D01*
X152273095Y-106635714D02*
X152235000Y-106673810D01*
X152273095Y-106711905D01*
X152311190Y-106673810D01*
X152273095Y-106635714D01*
X152273095Y-106711905D01*
X151511190Y-105911905D02*
X151892143Y-105911905D01*
X151930238Y-106292857D01*
X151892143Y-106254762D01*
X151815952Y-106216667D01*
X151625476Y-106216667D01*
X151549286Y-106254762D01*
X151511190Y-106292857D01*
X151473095Y-106369048D01*
X151473095Y-106559524D01*
X151511190Y-106635714D01*
X151549286Y-106673810D01*
X151625476Y-106711905D01*
X151815952Y-106711905D01*
X151892143Y-106673810D01*
X151930238Y-106635714D01*
X151168333Y-106483333D02*
X150787381Y-106483333D01*
X151244524Y-106711905D02*
X150977857Y-105911905D01*
X150711190Y-106711905D01*
X157339762Y-109023333D02*
X156958810Y-109023333D01*
X157415953Y-109251905D02*
X157149286Y-108451905D01*
X156882619Y-109251905D01*
X156615953Y-109251905D02*
X156615953Y-108451905D01*
X156311191Y-108451905D01*
X156235000Y-108490000D01*
X156196905Y-108528095D01*
X156158810Y-108604286D01*
X156158810Y-108718571D01*
X156196905Y-108794762D01*
X156235000Y-108832857D01*
X156311191Y-108870952D01*
X156615953Y-108870952D01*
X155815953Y-109251905D02*
X155815953Y-108451905D01*
X155511191Y-108451905D01*
X155435000Y-108490000D01*
X155396905Y-108528095D01*
X155358810Y-108604286D01*
X155358810Y-108718571D01*
X155396905Y-108794762D01*
X155435000Y-108832857D01*
X155511191Y-108870952D01*
X155815953Y-108870952D01*
X154635000Y-109251905D02*
X155015953Y-109251905D01*
X155015953Y-108451905D01*
X154368334Y-108832857D02*
X154101667Y-108832857D01*
X153987381Y-109251905D02*
X154368334Y-109251905D01*
X154368334Y-108451905D01*
X153987381Y-108451905D01*
X152615952Y-109251905D02*
X153073095Y-109251905D01*
X152844524Y-109251905D02*
X152844524Y-108451905D01*
X152920714Y-108566190D01*
X152996905Y-108642381D01*
X153073095Y-108680476D01*
X152273095Y-109175714D02*
X152235000Y-109213810D01*
X152273095Y-109251905D01*
X152311190Y-109213810D01*
X152273095Y-109175714D01*
X152273095Y-109251905D01*
X151739762Y-108451905D02*
X151663571Y-108451905D01*
X151587381Y-108490000D01*
X151549286Y-108528095D01*
X151511190Y-108604286D01*
X151473095Y-108756667D01*
X151473095Y-108947143D01*
X151511190Y-109099524D01*
X151549286Y-109175714D01*
X151587381Y-109213810D01*
X151663571Y-109251905D01*
X151739762Y-109251905D01*
X151815952Y-109213810D01*
X151854048Y-109175714D01*
X151892143Y-109099524D01*
X151930238Y-108947143D01*
X151930238Y-108756667D01*
X151892143Y-108604286D01*
X151854048Y-108528095D01*
X151815952Y-108490000D01*
X151739762Y-108451905D01*
X151168333Y-109023333D02*
X150787381Y-109023333D01*
X151244524Y-109251905D02*
X150977857Y-108451905D01*
X150711190Y-109251905D01*
X157339762Y-107753333D02*
X156958810Y-107753333D01*
X157415953Y-107981905D02*
X157149286Y-107181905D01*
X156882619Y-107981905D01*
X156615953Y-107981905D02*
X156615953Y-107181905D01*
X156311191Y-107181905D01*
X156235000Y-107220000D01*
X156196905Y-107258095D01*
X156158810Y-107334286D01*
X156158810Y-107448571D01*
X156196905Y-107524762D01*
X156235000Y-107562857D01*
X156311191Y-107600952D01*
X156615953Y-107600952D01*
X155815953Y-107981905D02*
X155815953Y-107181905D01*
X155511191Y-107181905D01*
X155435000Y-107220000D01*
X155396905Y-107258095D01*
X155358810Y-107334286D01*
X155358810Y-107448571D01*
X155396905Y-107524762D01*
X155435000Y-107562857D01*
X155511191Y-107600952D01*
X155815953Y-107600952D01*
X154635000Y-107981905D02*
X155015953Y-107981905D01*
X155015953Y-107181905D01*
X154368334Y-107562857D02*
X154101667Y-107562857D01*
X153987381Y-107981905D02*
X154368334Y-107981905D01*
X154368334Y-107181905D01*
X153987381Y-107181905D01*
X152882619Y-107181905D02*
X152806428Y-107181905D01*
X152730238Y-107220000D01*
X152692143Y-107258095D01*
X152654047Y-107334286D01*
X152615952Y-107486667D01*
X152615952Y-107677143D01*
X152654047Y-107829524D01*
X152692143Y-107905714D01*
X152730238Y-107943810D01*
X152806428Y-107981905D01*
X152882619Y-107981905D01*
X152958809Y-107943810D01*
X152996905Y-107905714D01*
X153035000Y-107829524D01*
X153073095Y-107677143D01*
X153073095Y-107486667D01*
X153035000Y-107334286D01*
X152996905Y-107258095D01*
X152958809Y-107220000D01*
X152882619Y-107181905D01*
X152273095Y-107905714D02*
X152235000Y-107943810D01*
X152273095Y-107981905D01*
X152311190Y-107943810D01*
X152273095Y-107905714D01*
X152273095Y-107981905D01*
X151511190Y-107181905D02*
X151892143Y-107181905D01*
X151930238Y-107562857D01*
X151892143Y-107524762D01*
X151815952Y-107486667D01*
X151625476Y-107486667D01*
X151549286Y-107524762D01*
X151511190Y-107562857D01*
X151473095Y-107639048D01*
X151473095Y-107829524D01*
X151511190Y-107905714D01*
X151549286Y-107943810D01*
X151625476Y-107981905D01*
X151815952Y-107981905D01*
X151892143Y-107943810D01*
X151930238Y-107905714D01*
X151168333Y-107753333D02*
X150787381Y-107753333D01*
X151244524Y-107981905D02*
X150977857Y-107181905D01*
X150711190Y-107981905D01*
M02*
