M48
;DRILL file {KiCad (2016-03-06 BZR 6610)-product} date 2016 April 20, Wednesday 18:42:31
;FORMAT={-:-/ absolute / inch / decimal}
FMAT,2
INCH,TZ
T1C0.020
T2C0.059
T3C0.126
%
G90
G05
M72
T1
X5.436Y-3.937
X5.4637Y-3.8702
X5.4637Y-4.0038
X5.5305Y-3.8425
X5.5305Y-4.0315
X5.5973Y-3.8702
X5.5973Y-4.0038
X5.625Y-3.937
X6.186Y-3.937
X6.2137Y-3.8702
X6.2137Y-4.0038
X6.2805Y-3.8425
X6.2805Y-4.0315
X6.3473Y-3.8702
X6.3473Y-4.0038
X6.375Y-3.937
T2
X5.7555Y-3.937
X6.0555Y-3.937
T3
X5.5305Y-3.937
X6.2805Y-3.937
T0
M30
