G04 #@! TF.FileFunction,Legend,Top*
%FSLAX46Y46*%
G04 Gerber Fmt 4.6, Leading zero omitted, Abs format (unit mm)*
G04 Created by KiCad (PCBNEW (2016-03-06 BZR 6610)-product) date 2016 April 20, Wednesday 18:42:29*
%MOMM*%
G01*
G04 APERTURE LIST*
%ADD10C,0.100000*%
%ADD11C,0.150000*%
%ADD12C,0.200000*%
G04 APERTURE END LIST*
D10*
D11*
X142660238Y-110293333D02*
X143041190Y-110293333D01*
X142584047Y-110521905D02*
X142850714Y-109721905D01*
X143117381Y-110521905D01*
X143384047Y-110521905D02*
X143384047Y-109721905D01*
X143688809Y-109721905D01*
X143765000Y-109760000D01*
X143803095Y-109798095D01*
X143841190Y-109874286D01*
X143841190Y-109988571D01*
X143803095Y-110064762D01*
X143765000Y-110102857D01*
X143688809Y-110140952D01*
X143384047Y-110140952D01*
X144184047Y-110521905D02*
X144184047Y-109721905D01*
X144488809Y-109721905D01*
X144565000Y-109760000D01*
X144603095Y-109798095D01*
X144641190Y-109874286D01*
X144641190Y-109988571D01*
X144603095Y-110064762D01*
X144565000Y-110102857D01*
X144488809Y-110140952D01*
X144184047Y-110140952D01*
X145365000Y-110521905D02*
X144984047Y-110521905D01*
X144984047Y-109721905D01*
X145631666Y-110102857D02*
X145898333Y-110102857D01*
X146012619Y-110521905D02*
X145631666Y-110521905D01*
X145631666Y-109721905D01*
X146012619Y-109721905D01*
X146926905Y-109798095D02*
X146965000Y-109760000D01*
X147041191Y-109721905D01*
X147231667Y-109721905D01*
X147307857Y-109760000D01*
X147345953Y-109798095D01*
X147384048Y-109874286D01*
X147384048Y-109950476D01*
X147345953Y-110064762D01*
X146888810Y-110521905D01*
X147384048Y-110521905D01*
X147726905Y-110445714D02*
X147765000Y-110483810D01*
X147726905Y-110521905D01*
X147688810Y-110483810D01*
X147726905Y-110445714D01*
X147726905Y-110521905D01*
X148260238Y-109721905D02*
X148336429Y-109721905D01*
X148412619Y-109760000D01*
X148450714Y-109798095D01*
X148488810Y-109874286D01*
X148526905Y-110026667D01*
X148526905Y-110217143D01*
X148488810Y-110369524D01*
X148450714Y-110445714D01*
X148412619Y-110483810D01*
X148336429Y-110521905D01*
X148260238Y-110521905D01*
X148184048Y-110483810D01*
X148145952Y-110445714D01*
X148107857Y-110369524D01*
X148069762Y-110217143D01*
X148069762Y-110026667D01*
X148107857Y-109874286D01*
X148145952Y-109798095D01*
X148184048Y-109760000D01*
X148260238Y-109721905D01*
X148831667Y-110293333D02*
X149212619Y-110293333D01*
X148755476Y-110521905D02*
X149022143Y-109721905D01*
X149288810Y-110521905D01*
X142660238Y-109023333D02*
X143041190Y-109023333D01*
X142584047Y-109251905D02*
X142850714Y-108451905D01*
X143117381Y-109251905D01*
X143384047Y-109251905D02*
X143384047Y-108451905D01*
X143688809Y-108451905D01*
X143765000Y-108490000D01*
X143803095Y-108528095D01*
X143841190Y-108604286D01*
X143841190Y-108718571D01*
X143803095Y-108794762D01*
X143765000Y-108832857D01*
X143688809Y-108870952D01*
X143384047Y-108870952D01*
X144184047Y-109251905D02*
X144184047Y-108451905D01*
X144488809Y-108451905D01*
X144565000Y-108490000D01*
X144603095Y-108528095D01*
X144641190Y-108604286D01*
X144641190Y-108718571D01*
X144603095Y-108794762D01*
X144565000Y-108832857D01*
X144488809Y-108870952D01*
X144184047Y-108870952D01*
X145365000Y-109251905D02*
X144984047Y-109251905D01*
X144984047Y-108451905D01*
X145631666Y-108832857D02*
X145898333Y-108832857D01*
X146012619Y-109251905D02*
X145631666Y-109251905D01*
X145631666Y-108451905D01*
X146012619Y-108451905D01*
X147384048Y-109251905D02*
X146926905Y-109251905D01*
X147155476Y-109251905D02*
X147155476Y-108451905D01*
X147079286Y-108566190D01*
X147003095Y-108642381D01*
X146926905Y-108680476D01*
X147726905Y-109175714D02*
X147765000Y-109213810D01*
X147726905Y-109251905D01*
X147688810Y-109213810D01*
X147726905Y-109175714D01*
X147726905Y-109251905D01*
X148260238Y-108451905D02*
X148336429Y-108451905D01*
X148412619Y-108490000D01*
X148450714Y-108528095D01*
X148488810Y-108604286D01*
X148526905Y-108756667D01*
X148526905Y-108947143D01*
X148488810Y-109099524D01*
X148450714Y-109175714D01*
X148412619Y-109213810D01*
X148336429Y-109251905D01*
X148260238Y-109251905D01*
X148184048Y-109213810D01*
X148145952Y-109175714D01*
X148107857Y-109099524D01*
X148069762Y-108947143D01*
X148069762Y-108756667D01*
X148107857Y-108604286D01*
X148145952Y-108528095D01*
X148184048Y-108490000D01*
X148260238Y-108451905D01*
X148831667Y-109023333D02*
X149212619Y-109023333D01*
X148755476Y-109251905D02*
X149022143Y-108451905D01*
X149288810Y-109251905D01*
X142660238Y-107753333D02*
X143041190Y-107753333D01*
X142584047Y-107981905D02*
X142850714Y-107181905D01*
X143117381Y-107981905D01*
X143384047Y-107981905D02*
X143384047Y-107181905D01*
X143688809Y-107181905D01*
X143765000Y-107220000D01*
X143803095Y-107258095D01*
X143841190Y-107334286D01*
X143841190Y-107448571D01*
X143803095Y-107524762D01*
X143765000Y-107562857D01*
X143688809Y-107600952D01*
X143384047Y-107600952D01*
X144184047Y-107981905D02*
X144184047Y-107181905D01*
X144488809Y-107181905D01*
X144565000Y-107220000D01*
X144603095Y-107258095D01*
X144641190Y-107334286D01*
X144641190Y-107448571D01*
X144603095Y-107524762D01*
X144565000Y-107562857D01*
X144488809Y-107600952D01*
X144184047Y-107600952D01*
X145365000Y-107981905D02*
X144984047Y-107981905D01*
X144984047Y-107181905D01*
X145631666Y-107562857D02*
X145898333Y-107562857D01*
X146012619Y-107981905D02*
X145631666Y-107981905D01*
X145631666Y-107181905D01*
X146012619Y-107181905D01*
X147117381Y-107181905D02*
X147193572Y-107181905D01*
X147269762Y-107220000D01*
X147307857Y-107258095D01*
X147345953Y-107334286D01*
X147384048Y-107486667D01*
X147384048Y-107677143D01*
X147345953Y-107829524D01*
X147307857Y-107905714D01*
X147269762Y-107943810D01*
X147193572Y-107981905D01*
X147117381Y-107981905D01*
X147041191Y-107943810D01*
X147003095Y-107905714D01*
X146965000Y-107829524D01*
X146926905Y-107677143D01*
X146926905Y-107486667D01*
X146965000Y-107334286D01*
X147003095Y-107258095D01*
X147041191Y-107220000D01*
X147117381Y-107181905D01*
X147726905Y-107905714D02*
X147765000Y-107943810D01*
X147726905Y-107981905D01*
X147688810Y-107943810D01*
X147726905Y-107905714D01*
X147726905Y-107981905D01*
X148488810Y-107181905D02*
X148107857Y-107181905D01*
X148069762Y-107562857D01*
X148107857Y-107524762D01*
X148184048Y-107486667D01*
X148374524Y-107486667D01*
X148450714Y-107524762D01*
X148488810Y-107562857D01*
X148526905Y-107639048D01*
X148526905Y-107829524D01*
X148488810Y-107905714D01*
X148450714Y-107943810D01*
X148374524Y-107981905D01*
X148184048Y-107981905D01*
X148107857Y-107943810D01*
X148069762Y-107905714D01*
X148831667Y-107753333D02*
X149212619Y-107753333D01*
X148755476Y-107981905D02*
X149022143Y-107181905D01*
X149288810Y-107981905D01*
X143955476Y-106711905D02*
X143955476Y-105911905D01*
X144145952Y-105911905D01*
X144260238Y-105950000D01*
X144336429Y-106026190D01*
X144374524Y-106102381D01*
X144412619Y-106254762D01*
X144412619Y-106369048D01*
X144374524Y-106521429D01*
X144336429Y-106597619D01*
X144260238Y-106673810D01*
X144145952Y-106711905D01*
X143955476Y-106711905D01*
X145212619Y-106635714D02*
X145174524Y-106673810D01*
X145060238Y-106711905D01*
X144984048Y-106711905D01*
X144869762Y-106673810D01*
X144793571Y-106597619D01*
X144755476Y-106521429D01*
X144717381Y-106369048D01*
X144717381Y-106254762D01*
X144755476Y-106102381D01*
X144793571Y-106026190D01*
X144869762Y-105950000D01*
X144984048Y-105911905D01*
X145060238Y-105911905D01*
X145174524Y-105950000D01*
X145212619Y-105988095D01*
X145555476Y-106711905D02*
X145555476Y-105911905D01*
X145860238Y-105911905D01*
X145936429Y-105950000D01*
X145974524Y-105988095D01*
X146012619Y-106064286D01*
X146012619Y-106178571D01*
X145974524Y-106254762D01*
X145936429Y-106292857D01*
X145860238Y-106330952D01*
X145555476Y-106330952D01*
X147384048Y-106711905D02*
X146926905Y-106711905D01*
X147155476Y-106711905D02*
X147155476Y-105911905D01*
X147079286Y-106026190D01*
X147003095Y-106102381D01*
X146926905Y-106140476D01*
X147726905Y-106635714D02*
X147765000Y-106673810D01*
X147726905Y-106711905D01*
X147688810Y-106673810D01*
X147726905Y-106635714D01*
X147726905Y-106711905D01*
X148488810Y-105911905D02*
X148107857Y-105911905D01*
X148069762Y-106292857D01*
X148107857Y-106254762D01*
X148184048Y-106216667D01*
X148374524Y-106216667D01*
X148450714Y-106254762D01*
X148488810Y-106292857D01*
X148526905Y-106369048D01*
X148526905Y-106559524D01*
X148488810Y-106635714D01*
X148450714Y-106673810D01*
X148374524Y-106711905D01*
X148184048Y-106711905D01*
X148107857Y-106673810D01*
X148069762Y-106635714D01*
X148831667Y-106483333D02*
X149212619Y-106483333D01*
X148755476Y-106711905D02*
X149022143Y-105911905D01*
X149288810Y-106711905D01*
X151581238Y-106711905D02*
X151581238Y-105911905D01*
X151771714Y-105911905D01*
X151886000Y-105950000D01*
X151962191Y-106026190D01*
X152000286Y-106102381D01*
X152038381Y-106254762D01*
X152038381Y-106369048D01*
X152000286Y-106521429D01*
X151962191Y-106597619D01*
X151886000Y-106673810D01*
X151771714Y-106711905D01*
X151581238Y-106711905D01*
X152381238Y-106407143D02*
X152990762Y-106407143D01*
X152686000Y-106711905D02*
X152686000Y-106102381D01*
X151143143Y-107258095D02*
X151181238Y-107220000D01*
X151257429Y-107181905D01*
X151447905Y-107181905D01*
X151524095Y-107220000D01*
X151562191Y-107258095D01*
X151600286Y-107334286D01*
X151600286Y-107410476D01*
X151562191Y-107524762D01*
X151105048Y-107981905D01*
X151600286Y-107981905D01*
X151943143Y-107905714D02*
X151981238Y-107943810D01*
X151943143Y-107981905D01*
X151905048Y-107943810D01*
X151943143Y-107905714D01*
X151943143Y-107981905D01*
X152476476Y-107181905D02*
X152552667Y-107181905D01*
X152628857Y-107220000D01*
X152666952Y-107258095D01*
X152705048Y-107334286D01*
X152743143Y-107486667D01*
X152743143Y-107677143D01*
X152705048Y-107829524D01*
X152666952Y-107905714D01*
X152628857Y-107943810D01*
X152552667Y-107981905D01*
X152476476Y-107981905D01*
X152400286Y-107943810D01*
X152362190Y-107905714D01*
X152324095Y-107829524D01*
X152286000Y-107677143D01*
X152286000Y-107486667D01*
X152324095Y-107334286D01*
X152362190Y-107258095D01*
X152400286Y-107220000D01*
X152476476Y-107181905D01*
X152971714Y-107181905D02*
X153238381Y-107981905D01*
X153505048Y-107181905D01*
X151143143Y-108528095D02*
X151181238Y-108490000D01*
X151257429Y-108451905D01*
X151447905Y-108451905D01*
X151524095Y-108490000D01*
X151562191Y-108528095D01*
X151600286Y-108604286D01*
X151600286Y-108680476D01*
X151562191Y-108794762D01*
X151105048Y-109251905D01*
X151600286Y-109251905D01*
X151943143Y-109175714D02*
X151981238Y-109213810D01*
X151943143Y-109251905D01*
X151905048Y-109213810D01*
X151943143Y-109175714D01*
X151943143Y-109251905D01*
X152438381Y-108794762D02*
X152362190Y-108756667D01*
X152324095Y-108718571D01*
X152286000Y-108642381D01*
X152286000Y-108604286D01*
X152324095Y-108528095D01*
X152362190Y-108490000D01*
X152438381Y-108451905D01*
X152590762Y-108451905D01*
X152666952Y-108490000D01*
X152705048Y-108528095D01*
X152743143Y-108604286D01*
X152743143Y-108642381D01*
X152705048Y-108718571D01*
X152666952Y-108756667D01*
X152590762Y-108794762D01*
X152438381Y-108794762D01*
X152362190Y-108832857D01*
X152324095Y-108870952D01*
X152286000Y-108947143D01*
X152286000Y-109099524D01*
X152324095Y-109175714D01*
X152362190Y-109213810D01*
X152438381Y-109251905D01*
X152590762Y-109251905D01*
X152666952Y-109213810D01*
X152705048Y-109175714D01*
X152743143Y-109099524D01*
X152743143Y-108947143D01*
X152705048Y-108870952D01*
X152666952Y-108832857D01*
X152590762Y-108794762D01*
X152971714Y-108451905D02*
X153238381Y-109251905D01*
X153505048Y-108451905D01*
X151143143Y-109798095D02*
X151181238Y-109760000D01*
X151257429Y-109721905D01*
X151447905Y-109721905D01*
X151524095Y-109760000D01*
X151562191Y-109798095D01*
X151600286Y-109874286D01*
X151600286Y-109950476D01*
X151562191Y-110064762D01*
X151105048Y-110521905D01*
X151600286Y-110521905D01*
X151943143Y-110445714D02*
X151981238Y-110483810D01*
X151943143Y-110521905D01*
X151905048Y-110483810D01*
X151943143Y-110445714D01*
X151943143Y-110521905D01*
X152476476Y-109721905D02*
X152552667Y-109721905D01*
X152628857Y-109760000D01*
X152666952Y-109798095D01*
X152705048Y-109874286D01*
X152743143Y-110026667D01*
X152743143Y-110217143D01*
X152705048Y-110369524D01*
X152666952Y-110445714D01*
X152628857Y-110483810D01*
X152552667Y-110521905D01*
X152476476Y-110521905D01*
X152400286Y-110483810D01*
X152362190Y-110445714D01*
X152324095Y-110369524D01*
X152286000Y-110217143D01*
X152286000Y-110026667D01*
X152324095Y-109874286D01*
X152362190Y-109798095D01*
X152400286Y-109760000D01*
X152476476Y-109721905D01*
X152971714Y-109721905D02*
X153238381Y-110521905D01*
X153505048Y-109721905D01*
X154064143Y-109798095D02*
X154102238Y-109760000D01*
X154178429Y-109721905D01*
X154368905Y-109721905D01*
X154445095Y-109760000D01*
X154483191Y-109798095D01*
X154521286Y-109874286D01*
X154521286Y-109950476D01*
X154483191Y-110064762D01*
X154026048Y-110521905D01*
X154521286Y-110521905D01*
X154864143Y-110445714D02*
X154902238Y-110483810D01*
X154864143Y-110521905D01*
X154826048Y-110483810D01*
X154864143Y-110445714D01*
X154864143Y-110521905D01*
X155359381Y-110064762D02*
X155283190Y-110026667D01*
X155245095Y-109988571D01*
X155207000Y-109912381D01*
X155207000Y-109874286D01*
X155245095Y-109798095D01*
X155283190Y-109760000D01*
X155359381Y-109721905D01*
X155511762Y-109721905D01*
X155587952Y-109760000D01*
X155626048Y-109798095D01*
X155664143Y-109874286D01*
X155664143Y-109912381D01*
X155626048Y-109988571D01*
X155587952Y-110026667D01*
X155511762Y-110064762D01*
X155359381Y-110064762D01*
X155283190Y-110102857D01*
X155245095Y-110140952D01*
X155207000Y-110217143D01*
X155207000Y-110369524D01*
X155245095Y-110445714D01*
X155283190Y-110483810D01*
X155359381Y-110521905D01*
X155511762Y-110521905D01*
X155587952Y-110483810D01*
X155626048Y-110445714D01*
X155664143Y-110369524D01*
X155664143Y-110217143D01*
X155626048Y-110140952D01*
X155587952Y-110102857D01*
X155511762Y-110064762D01*
X155892714Y-109721905D02*
X156159381Y-110521905D01*
X156426048Y-109721905D01*
X154064143Y-108528095D02*
X154102238Y-108490000D01*
X154178429Y-108451905D01*
X154368905Y-108451905D01*
X154445095Y-108490000D01*
X154483191Y-108528095D01*
X154521286Y-108604286D01*
X154521286Y-108680476D01*
X154483191Y-108794762D01*
X154026048Y-109251905D01*
X154521286Y-109251905D01*
X154864143Y-109175714D02*
X154902238Y-109213810D01*
X154864143Y-109251905D01*
X154826048Y-109213810D01*
X154864143Y-109175714D01*
X154864143Y-109251905D01*
X155397476Y-108451905D02*
X155473667Y-108451905D01*
X155549857Y-108490000D01*
X155587952Y-108528095D01*
X155626048Y-108604286D01*
X155664143Y-108756667D01*
X155664143Y-108947143D01*
X155626048Y-109099524D01*
X155587952Y-109175714D01*
X155549857Y-109213810D01*
X155473667Y-109251905D01*
X155397476Y-109251905D01*
X155321286Y-109213810D01*
X155283190Y-109175714D01*
X155245095Y-109099524D01*
X155207000Y-108947143D01*
X155207000Y-108756667D01*
X155245095Y-108604286D01*
X155283190Y-108528095D01*
X155321286Y-108490000D01*
X155397476Y-108451905D01*
X155892714Y-108451905D02*
X156159381Y-109251905D01*
X156426048Y-108451905D01*
X154064143Y-107258095D02*
X154102238Y-107220000D01*
X154178429Y-107181905D01*
X154368905Y-107181905D01*
X154445095Y-107220000D01*
X154483191Y-107258095D01*
X154521286Y-107334286D01*
X154521286Y-107410476D01*
X154483191Y-107524762D01*
X154026048Y-107981905D01*
X154521286Y-107981905D01*
X154864143Y-107905714D02*
X154902238Y-107943810D01*
X154864143Y-107981905D01*
X154826048Y-107943810D01*
X154864143Y-107905714D01*
X154864143Y-107981905D01*
X155397476Y-107181905D02*
X155473667Y-107181905D01*
X155549857Y-107220000D01*
X155587952Y-107258095D01*
X155626048Y-107334286D01*
X155664143Y-107486667D01*
X155664143Y-107677143D01*
X155626048Y-107829524D01*
X155587952Y-107905714D01*
X155549857Y-107943810D01*
X155473667Y-107981905D01*
X155397476Y-107981905D01*
X155321286Y-107943810D01*
X155283190Y-107905714D01*
X155245095Y-107829524D01*
X155207000Y-107677143D01*
X155207000Y-107486667D01*
X155245095Y-107334286D01*
X155283190Y-107258095D01*
X155321286Y-107220000D01*
X155397476Y-107181905D01*
X155892714Y-107181905D02*
X156159381Y-107981905D01*
X156426048Y-107181905D01*
X154502238Y-106711905D02*
X154502238Y-105911905D01*
X154692714Y-105911905D01*
X154807000Y-105950000D01*
X154883191Y-106026190D01*
X154921286Y-106102381D01*
X154959381Y-106254762D01*
X154959381Y-106369048D01*
X154921286Y-106521429D01*
X154883191Y-106597619D01*
X154807000Y-106673810D01*
X154692714Y-106711905D01*
X154502238Y-106711905D01*
X155302238Y-106407143D02*
X155911762Y-106407143D01*
X146279285Y-105060905D02*
X146279285Y-104260905D01*
X146545952Y-104832333D01*
X146812619Y-104260905D01*
X146812619Y-105060905D01*
X147345952Y-104260905D02*
X147498333Y-104260905D01*
X147574524Y-104299000D01*
X147650714Y-104375190D01*
X147688809Y-104527571D01*
X147688809Y-104794238D01*
X147650714Y-104946619D01*
X147574524Y-105022810D01*
X147498333Y-105060905D01*
X147345952Y-105060905D01*
X147269762Y-105022810D01*
X147193571Y-104946619D01*
X147155476Y-104794238D01*
X147155476Y-104527571D01*
X147193571Y-104375190D01*
X147269762Y-104299000D01*
X147345952Y-104260905D01*
X148031666Y-105060905D02*
X148031666Y-104260905D01*
X148222142Y-104260905D01*
X148336428Y-104299000D01*
X148412619Y-104375190D01*
X148450714Y-104451381D01*
X148488809Y-104603762D01*
X148488809Y-104718048D01*
X148450714Y-104870429D01*
X148412619Y-104946619D01*
X148336428Y-105022810D01*
X148222142Y-105060905D01*
X148031666Y-105060905D01*
X148831666Y-104641857D02*
X149098333Y-104641857D01*
X149212619Y-105060905D02*
X148831666Y-105060905D01*
X148831666Y-104260905D01*
X149212619Y-104260905D01*
X154502238Y-105060905D02*
X154502238Y-104260905D01*
X154692714Y-104260905D01*
X154807000Y-104299000D01*
X154883191Y-104375190D01*
X154921286Y-104451381D01*
X154959381Y-104603762D01*
X154959381Y-104718048D01*
X154921286Y-104870429D01*
X154883191Y-104946619D01*
X154807000Y-105022810D01*
X154692714Y-105060905D01*
X154502238Y-105060905D01*
X155302238Y-104756143D02*
X155911762Y-104756143D01*
X155607000Y-105060905D02*
X155607000Y-104451381D01*
X151581238Y-105060905D02*
X151581238Y-104260905D01*
X151771714Y-104260905D01*
X151886000Y-104299000D01*
X151962191Y-104375190D01*
X152000286Y-104451381D01*
X152038381Y-104603762D01*
X152038381Y-104718048D01*
X152000286Y-104870429D01*
X151962191Y-104946619D01*
X151886000Y-105022810D01*
X151771714Y-105060905D01*
X151581238Y-105060905D01*
X152381238Y-104756143D02*
X152990762Y-104756143D01*
D12*
X143000000Y-105461000D02*
X157000000Y-105461000D01*
X133090715Y-90342857D02*
X133490715Y-91542857D01*
X133890715Y-90342857D01*
X134233571Y-91200000D02*
X134805000Y-91200000D01*
X134119286Y-91542857D02*
X134519286Y-90342857D01*
X134919286Y-91542857D01*
X136005000Y-91542857D02*
X135605000Y-90971429D01*
X135319285Y-91542857D02*
X135319285Y-90342857D01*
X135776428Y-90342857D01*
X135890714Y-90400000D01*
X135947857Y-90457143D01*
X136005000Y-90571429D01*
X136005000Y-90742857D01*
X135947857Y-90857143D01*
X135890714Y-90914286D01*
X135776428Y-90971429D01*
X135319285Y-90971429D01*
X163880715Y-90342857D02*
X164280715Y-91542857D01*
X164680715Y-90342857D01*
X165023571Y-91200000D02*
X165595000Y-91200000D01*
X164909286Y-91542857D02*
X165309286Y-90342857D01*
X165709286Y-91542857D01*
X166795000Y-91542857D02*
X166395000Y-90971429D01*
X166109285Y-91542857D02*
X166109285Y-90342857D01*
X166566428Y-90342857D01*
X166680714Y-90400000D01*
X166737857Y-90457143D01*
X166795000Y-90571429D01*
X166795000Y-90742857D01*
X166737857Y-90857143D01*
X166680714Y-90914286D01*
X166566428Y-90971429D01*
X166109285Y-90971429D01*
X165395000Y-88500000D02*
X165395000Y-89500000D01*
X165342857Y-104057143D02*
X165400000Y-104000000D01*
X165514286Y-103942857D01*
X165800000Y-103942857D01*
X165914286Y-104000000D01*
X165971429Y-104057143D01*
X166028572Y-104171429D01*
X166028572Y-104285714D01*
X165971429Y-104457143D01*
X165285715Y-105142857D01*
X166028572Y-105142857D01*
X166542857Y-105028571D02*
X166600000Y-105085714D01*
X166542857Y-105142857D01*
X166485714Y-105085714D01*
X166542857Y-105028571D01*
X166542857Y-105142857D01*
X167342858Y-103942857D02*
X167457143Y-103942857D01*
X167571429Y-104000000D01*
X167628572Y-104057143D01*
X167685715Y-104171429D01*
X167742858Y-104400000D01*
X167742858Y-104685714D01*
X167685715Y-104914286D01*
X167628572Y-105028571D01*
X167571429Y-105085714D01*
X167457143Y-105142857D01*
X167342858Y-105142857D01*
X167228572Y-105085714D01*
X167171429Y-105028571D01*
X167114286Y-104914286D01*
X167057143Y-104685714D01*
X167057143Y-104400000D01*
X167114286Y-104171429D01*
X167171429Y-104057143D01*
X167228572Y-104000000D01*
X167342858Y-103942857D01*
X168085715Y-103942857D02*
X168485715Y-105142857D01*
X168885715Y-103942857D01*
X165342857Y-101757143D02*
X165400000Y-101700000D01*
X165514286Y-101642857D01*
X165800000Y-101642857D01*
X165914286Y-101700000D01*
X165971429Y-101757143D01*
X166028572Y-101871429D01*
X166028572Y-101985714D01*
X165971429Y-102157143D01*
X165285715Y-102842857D01*
X166028572Y-102842857D01*
X166542857Y-102728571D02*
X166600000Y-102785714D01*
X166542857Y-102842857D01*
X166485714Y-102785714D01*
X166542857Y-102728571D01*
X166542857Y-102842857D01*
X167285715Y-102157143D02*
X167171429Y-102100000D01*
X167114286Y-102042857D01*
X167057143Y-101928571D01*
X167057143Y-101871429D01*
X167114286Y-101757143D01*
X167171429Y-101700000D01*
X167285715Y-101642857D01*
X167514286Y-101642857D01*
X167628572Y-101700000D01*
X167685715Y-101757143D01*
X167742858Y-101871429D01*
X167742858Y-101928571D01*
X167685715Y-102042857D01*
X167628572Y-102100000D01*
X167514286Y-102157143D01*
X167285715Y-102157143D01*
X167171429Y-102214286D01*
X167114286Y-102271429D01*
X167057143Y-102385714D01*
X167057143Y-102614286D01*
X167114286Y-102728571D01*
X167171429Y-102785714D01*
X167285715Y-102842857D01*
X167514286Y-102842857D01*
X167628572Y-102785714D01*
X167685715Y-102728571D01*
X167742858Y-102614286D01*
X167742858Y-102385714D01*
X167685715Y-102271429D01*
X167628572Y-102214286D01*
X167514286Y-102157143D01*
X168085715Y-101642857D02*
X168485715Y-102842857D01*
X168885715Y-101642857D01*
X165857144Y-99342857D02*
X166257144Y-100542857D01*
X166657144Y-99342857D01*
X167000000Y-100200000D02*
X167571429Y-100200000D01*
X166885715Y-100542857D02*
X167285715Y-99342857D01*
X167685715Y-100542857D01*
X168771429Y-100542857D02*
X168371429Y-99971429D01*
X168085714Y-100542857D02*
X168085714Y-99342857D01*
X168542857Y-99342857D01*
X168657143Y-99400000D01*
X168714286Y-99457143D01*
X168771429Y-99571429D01*
X168771429Y-99742857D01*
X168714286Y-99857143D01*
X168657143Y-99914286D01*
X168542857Y-99971429D01*
X168085714Y-99971429D01*
X166600000Y-98242857D02*
X166600000Y-97042857D01*
X166885715Y-97042857D01*
X167057143Y-97100000D01*
X167171429Y-97214286D01*
X167228572Y-97328571D01*
X167285715Y-97557143D01*
X167285715Y-97728571D01*
X167228572Y-97957143D01*
X167171429Y-98071429D01*
X167057143Y-98185714D01*
X166885715Y-98242857D01*
X166600000Y-98242857D01*
X167800000Y-97785714D02*
X168714286Y-97785714D01*
X164714286Y-94742857D02*
X164942857Y-94742857D01*
X165057143Y-94800000D01*
X165171429Y-94914286D01*
X165228571Y-95142857D01*
X165228571Y-95542857D01*
X165171429Y-95771429D01*
X165057143Y-95885714D01*
X164942857Y-95942857D01*
X164714286Y-95942857D01*
X164600000Y-95885714D01*
X164485714Y-95771429D01*
X164428571Y-95542857D01*
X164428571Y-95142857D01*
X164485714Y-94914286D01*
X164600000Y-94800000D01*
X164714286Y-94742857D01*
X165742857Y-95942857D02*
X165742857Y-94742857D01*
X166200000Y-94742857D01*
X166314286Y-94800000D01*
X166371429Y-94857143D01*
X166428572Y-94971429D01*
X166428572Y-95142857D01*
X166371429Y-95257143D01*
X166314286Y-95314286D01*
X166200000Y-95371429D01*
X165742857Y-95371429D01*
X166942857Y-95314286D02*
X167342857Y-95314286D01*
X167514286Y-95942857D02*
X166942857Y-95942857D01*
X166942857Y-94742857D01*
X167514286Y-94742857D01*
X168028571Y-95942857D02*
X168028571Y-94742857D01*
X168714286Y-95942857D01*
X168714286Y-94742857D01*
X131228571Y-104057143D02*
X131285714Y-104000000D01*
X131400000Y-103942857D01*
X131685714Y-103942857D01*
X131800000Y-104000000D01*
X131857143Y-104057143D01*
X131914286Y-104171429D01*
X131914286Y-104285714D01*
X131857143Y-104457143D01*
X131171429Y-105142857D01*
X131914286Y-105142857D01*
X132428571Y-105028571D02*
X132485714Y-105085714D01*
X132428571Y-105142857D01*
X132371428Y-105085714D01*
X132428571Y-105028571D01*
X132428571Y-105142857D01*
X133228572Y-103942857D02*
X133342857Y-103942857D01*
X133457143Y-104000000D01*
X133514286Y-104057143D01*
X133571429Y-104171429D01*
X133628572Y-104400000D01*
X133628572Y-104685714D01*
X133571429Y-104914286D01*
X133514286Y-105028571D01*
X133457143Y-105085714D01*
X133342857Y-105142857D01*
X133228572Y-105142857D01*
X133114286Y-105085714D01*
X133057143Y-105028571D01*
X133000000Y-104914286D01*
X132942857Y-104685714D01*
X132942857Y-104400000D01*
X133000000Y-104171429D01*
X133057143Y-104057143D01*
X133114286Y-104000000D01*
X133228572Y-103942857D01*
X133971429Y-103942857D02*
X134371429Y-105142857D01*
X134771429Y-103942857D01*
X131228571Y-101757143D02*
X131285714Y-101700000D01*
X131400000Y-101642857D01*
X131685714Y-101642857D01*
X131800000Y-101700000D01*
X131857143Y-101757143D01*
X131914286Y-101871429D01*
X131914286Y-101985714D01*
X131857143Y-102157143D01*
X131171429Y-102842857D01*
X131914286Y-102842857D01*
X132428571Y-102728571D02*
X132485714Y-102785714D01*
X132428571Y-102842857D01*
X132371428Y-102785714D01*
X132428571Y-102728571D01*
X132428571Y-102842857D01*
X133171429Y-102157143D02*
X133057143Y-102100000D01*
X133000000Y-102042857D01*
X132942857Y-101928571D01*
X132942857Y-101871429D01*
X133000000Y-101757143D01*
X133057143Y-101700000D01*
X133171429Y-101642857D01*
X133400000Y-101642857D01*
X133514286Y-101700000D01*
X133571429Y-101757143D01*
X133628572Y-101871429D01*
X133628572Y-101928571D01*
X133571429Y-102042857D01*
X133514286Y-102100000D01*
X133400000Y-102157143D01*
X133171429Y-102157143D01*
X133057143Y-102214286D01*
X133000000Y-102271429D01*
X132942857Y-102385714D01*
X132942857Y-102614286D01*
X133000000Y-102728571D01*
X133057143Y-102785714D01*
X133171429Y-102842857D01*
X133400000Y-102842857D01*
X133514286Y-102785714D01*
X133571429Y-102728571D01*
X133628572Y-102614286D01*
X133628572Y-102385714D01*
X133571429Y-102271429D01*
X133514286Y-102214286D01*
X133400000Y-102157143D01*
X133971429Y-101642857D02*
X134371429Y-102842857D01*
X134771429Y-101642857D01*
X131114286Y-99342857D02*
X131514286Y-100542857D01*
X131914286Y-99342857D01*
X132257142Y-100200000D02*
X132828571Y-100200000D01*
X132142857Y-100542857D02*
X132542857Y-99342857D01*
X132942857Y-100542857D01*
X134028571Y-100542857D02*
X133628571Y-99971429D01*
X133342856Y-100542857D02*
X133342856Y-99342857D01*
X133799999Y-99342857D01*
X133914285Y-99400000D01*
X133971428Y-99457143D01*
X134028571Y-99571429D01*
X134028571Y-99742857D01*
X133971428Y-99857143D01*
X133914285Y-99914286D01*
X133799999Y-99971429D01*
X133342856Y-99971429D01*
X131362714Y-98242857D02*
X131362714Y-97042857D01*
X131648429Y-97042857D01*
X131819857Y-97100000D01*
X131934143Y-97214286D01*
X131991286Y-97328571D01*
X132048429Y-97557143D01*
X132048429Y-97728571D01*
X131991286Y-97957143D01*
X131934143Y-98071429D01*
X131819857Y-98185714D01*
X131648429Y-98242857D01*
X131362714Y-98242857D01*
X132562714Y-97785714D02*
X133477000Y-97785714D01*
X133019857Y-98242857D02*
X133019857Y-97328571D01*
X131514286Y-94742857D02*
X131742857Y-94742857D01*
X131857143Y-94800000D01*
X131971429Y-94914286D01*
X132028571Y-95142857D01*
X132028571Y-95542857D01*
X131971429Y-95771429D01*
X131857143Y-95885714D01*
X131742857Y-95942857D01*
X131514286Y-95942857D01*
X131400000Y-95885714D01*
X131285714Y-95771429D01*
X131228571Y-95542857D01*
X131228571Y-95142857D01*
X131285714Y-94914286D01*
X131400000Y-94800000D01*
X131514286Y-94742857D01*
X132542857Y-95942857D02*
X132542857Y-94742857D01*
X133000000Y-94742857D01*
X133114286Y-94800000D01*
X133171429Y-94857143D01*
X133228572Y-94971429D01*
X133228572Y-95142857D01*
X133171429Y-95257143D01*
X133114286Y-95314286D01*
X133000000Y-95371429D01*
X132542857Y-95371429D01*
X133742857Y-95314286D02*
X134142857Y-95314286D01*
X134314286Y-95942857D02*
X133742857Y-95942857D01*
X133742857Y-94742857D01*
X134314286Y-94742857D01*
X134828571Y-95942857D02*
X134828571Y-94742857D01*
X135514286Y-95942857D01*
X135514286Y-94742857D01*
X169507857Y-93292857D02*
X169507857Y-92092857D01*
X169793572Y-92092857D01*
X169965000Y-92150000D01*
X170079286Y-92264286D01*
X170136429Y-92378571D01*
X170193572Y-92607143D01*
X170193572Y-92778571D01*
X170136429Y-93007143D01*
X170079286Y-93121429D01*
X169965000Y-93235714D01*
X169793572Y-93292857D01*
X169507857Y-93292857D01*
X170707857Y-92835714D02*
X171622143Y-92835714D01*
X171165000Y-93292857D02*
X171165000Y-92378571D01*
X128377857Y-93292857D02*
X128377857Y-92092857D01*
X128663572Y-92092857D01*
X128835000Y-92150000D01*
X128949286Y-92264286D01*
X129006429Y-92378571D01*
X129063572Y-92607143D01*
X129063572Y-92778571D01*
X129006429Y-93007143D01*
X128949286Y-93121429D01*
X128835000Y-93235714D01*
X128663572Y-93292857D01*
X128377857Y-93292857D01*
X129577857Y-92835714D02*
X130492143Y-92835714D01*
X152752857Y-98042857D02*
X152752857Y-96842857D01*
X153038572Y-96842857D01*
X153210000Y-96900000D01*
X153324286Y-97014286D01*
X153381429Y-97128571D01*
X153438572Y-97357143D01*
X153438572Y-97528571D01*
X153381429Y-97757143D01*
X153324286Y-97871429D01*
X153210000Y-97985714D01*
X153038572Y-98042857D01*
X152752857Y-98042857D01*
X153952857Y-97585714D02*
X154867143Y-97585714D01*
X154410000Y-98042857D02*
X154410000Y-97128571D01*
X145132857Y-98042857D02*
X145132857Y-96842857D01*
X145418572Y-96842857D01*
X145590000Y-96900000D01*
X145704286Y-97014286D01*
X145761429Y-97128571D01*
X145818572Y-97357143D01*
X145818572Y-97528571D01*
X145761429Y-97757143D01*
X145704286Y-97871429D01*
X145590000Y-97985714D01*
X145418572Y-98042857D01*
X145132857Y-98042857D01*
X146332857Y-97585714D02*
X147247143Y-97585714D01*
X158610715Y-95150000D02*
X158496429Y-95092857D01*
X158325000Y-95092857D01*
X158153572Y-95150000D01*
X158039286Y-95264286D01*
X157982143Y-95378571D01*
X157925000Y-95607143D01*
X157925000Y-95778571D01*
X157982143Y-96007143D01*
X158039286Y-96121429D01*
X158153572Y-96235714D01*
X158325000Y-96292857D01*
X158439286Y-96292857D01*
X158610715Y-96235714D01*
X158667858Y-96178571D01*
X158667858Y-95778571D01*
X158439286Y-95778571D01*
X159182143Y-96292857D02*
X159182143Y-95092857D01*
X159867858Y-96292857D01*
X159867858Y-95092857D01*
X160439286Y-96292857D02*
X160439286Y-95092857D01*
X160725001Y-95092857D01*
X160896429Y-95150000D01*
X161010715Y-95264286D01*
X161067858Y-95378571D01*
X161125001Y-95607143D01*
X161125001Y-95778571D01*
X161067858Y-96007143D01*
X161010715Y-96121429D01*
X160896429Y-96235714D01*
X160725001Y-96292857D01*
X160439286Y-96292857D01*
X140246429Y-95092857D02*
X139675000Y-95092857D01*
X139617857Y-95664286D01*
X139675000Y-95607143D01*
X139789286Y-95550000D01*
X140075000Y-95550000D01*
X140189286Y-95607143D01*
X140246429Y-95664286D01*
X140303572Y-95778571D01*
X140303572Y-96064286D01*
X140246429Y-96178571D01*
X140189286Y-96235714D01*
X140075000Y-96292857D01*
X139789286Y-96292857D01*
X139675000Y-96235714D01*
X139617857Y-96178571D01*
X140646429Y-95092857D02*
X141046429Y-96292857D01*
X141446429Y-95092857D01*
X134605000Y-88500000D02*
X134605000Y-89500000D01*
M02*
